<svg xmlns="http://www.w3.org/2000/svg" width="35" height="35">
    <defs>
        <style>.prefix__svgTre-2{fill:#1489FF}</style>
    </defs>
    <g id="prefix__Grupo_7000" transform="translate(-270 -1650)">
        <g id="prefix__Elipse_924" transform="translate(270 1650)" fill="#FFF" stroke="#1489ff">
            <circle cx="17.5" cy="17.5" r="17.5" stroke="none"></circle>
            <circle cx="17.5" cy="17.5" r="17" fill="none"></circle>
        </g>
        <g id="prefix__Grupo_6879" transform="translate(277 1661)">
            <path id="prefix__Trazado_14935" class="prefix__svgTre-2"
                  d="M297.772 45.737a4.322 4.322 0 01-3.73-1.693 7.5 7.5 0 01-1.238-4.523A7.5 7.5 0 01294.041 35a4.959 4.959 0 017.461 0 7.5 7.5 0 011.238 4.523 7.5 7.5 0 01-1.238 4.523 4.319 4.319 0 01-3.73 1.691zM296 36.624a6.344 6.344 0 00-.567 2.9 6.344 6.344 0 00.567 2.9 1.972 1.972 0 003.54 0 6.343 6.343 0 00.569-2.9 6.343 6.343 0 00-.569-2.9 1.973 1.973 0 00-3.54 0z"
                  transform="translate(-292.803 -33.306)"></path>
            <path id="prefix__Trazado_14936" class="prefix__svgTre-2"
                  d="M299.344 35.734v-2.288h7.356V35.3l-2.457 2.8a3.5 3.5 0 012.233 1.211 3.446 3.446 0 01.791 2.243 3.657 3.657 0 01-1.279 2.965 4.929 4.929 0 01-3.275 1.077 7.107 7.107 0 01-4.04-1.411l1.1-2.133a5.488 5.488 0 003.044 1.2 2.154 2.154 0 001.332-.4 1.34 1.34 0 00.526-1.144 1.388 1.388 0 00-.6-1.185 2.775 2.775 0 00-1.668-.44 5.831 5.831 0 00-1.6.328v-1.963l2.3-2.714z"
                  transform="translate(-287.154 -33.171)"></path>
        </g>
    </g>
</svg>
