<svg xmlns="http://www.w3.org/2000/svg" width="35" height="35">
    <g>
        <g fill="#1489FF" stroke="#1489ff">
            <circle cx="17.5" cy="17.5" r="17.5" stroke="none"></circle>
            <circle cx="17.5" cy="17.5" r="17" fill="none"></circle>
        </g>
        <g fill="#FFF">
            <path
                  d="M13.971 23.431a4.322 4.322 0 01-3.73-1.693 7.5 7.5 0 01-1.238-4.523 7.5 7.5 0 011.235-4.521 4.959 4.959 0 017.461 0 7.5 7.5 0 011.238 4.523 7.5 7.5 0 01-1.238 4.523 4.319 4.319 0 01-3.728 1.691zm-1.77-9.113a6.344 6.344 0 00-.567 2.9 6.344 6.344 0 00.567 2.9 1.972 1.972 0 003.54 0 6.343 6.343 0 00.569-2.9 6.343 6.343 0 00-.569-2.9 1.973 1.973 0 00-3.54 0z"></path>
            <path d="M20.432 11.275h4.866v12.019H22.72v-9.731h-2.288z"></path>
        </g>
    </g>
</svg>
