<svg xmlns="http://www.w3.org/2000/svg" width="35" height="35">
    <defs>
        <style>.prefix__SvgDos-2{fill:#1489FF</style>
    </defs>
    <g id="prefix__Grupo_6999" transform="translate(-170 -1650)">
        <g id="prefix__Elipse_923" transform="translate(170 1650)" fill="#FFF" stroke="#1489FF">
            <circle cx="17.5" cy="17.5" r="17.5" stroke="none"></circle>
            <circle cx="17.5" cy="17.5" r="17" fill="none"></circle>
        </g>
        <g id="prefix__Grupo_6880" transform="translate(177 1661)">
            <path id="prefix__Trazado_14930" class="prefix__SvgDos-2"
                  d="M256.11 45.737a4.318 4.318 0 01-3.728-1.693 7.5 7.5 0 01-1.238-4.523A7.5 7.5 0 01252.381 35a4.959 4.959 0 017.461 0 7.512 7.512 0 011.238 4.523 7.512 7.512 0 01-1.238 4.523 4.323 4.323 0 01-3.732 1.691zm-1.77-9.113a6.345 6.345 0 00-.567 2.9 6.345 6.345 0 00.567 2.9 1.973 1.973 0 003.542 0 6.345 6.345 0 00.567-2.9 6.345 6.345 0 00-.567-2.9 1.975 1.975 0 00-3.542 0z"
                  transform="translate(-251.143 -33.306)"></path>
            <path id="prefix__Trazado_14931" class="prefix__SvgDos-2"
                  d="M262.351 38.265a2.16 2.16 0 00.455-1.246 1.381 1.381 0 00-.394-1 1.36 1.36 0 00-1.014-.4q-1.133 0-2.149 1.615l-2.149-1.281a6.65 6.65 0 011.848-1.978 4.532 4.532 0 012.561-.669 4.13 4.13 0 012.733.987 3.33 3.33 0 011.177 2.692 3.6 3.6 0 01-.473 1.78 11.542 11.542 0 01-1.745 2.174l-2.166 2.253h4.747V45.6h-8.477v-2l3.524-3.611a15.043 15.043 0 001.522-1.724z"
                  transform="translate(-245.411 -33.306)"></path>
        </g>
    </g>
</svg>
